<?xml version="1.0" encoding="UTF-8" standalone="no"?>
<svg
   width="373.27023"
   height="127.82584"
   viewBox="0 0 373.27023 127.82584"
   fill="none"
   version="1.1"
   id="svg344"
   sodipodi:docname="bot-racecar.svg"
   inkscape:version="1.2.2 (732a01da63, 2022-12-09, custom)"
   xmlns:inkscape="http://www.inkscape.org/namespaces/inkscape"
   xmlns:sodipodi="http://sodipodi.sourceforge.net/DTD/sodipodi-0.dtd"
   xmlns="http://www.w3.org/2000/svg"
   xmlns:svg="http://www.w3.org/2000/svg">
  <sodipodi:namedview
     id="namedview346"
     pagecolor="#ffffff"
     bordercolor="#666666"
     borderopacity="1.0"
     inkscape:showpageshadow="2"
     inkscape:pageopacity="0.0"
     inkscape:pagecheckerboard="0"
     inkscape:deskcolor="#d1d1d1"
     showgrid="false"
     inkscape:zoom="2.1477987"
     inkscape:cx="172.2694"
     inkscape:cy="43.06735"
     inkscape:window-width="1866"
     inkscape:window-height="1016"
     inkscape:window-x="54"
     inkscape:window-y="27"
     inkscape:window-maximized="1"
     inkscape:current-layer="svg344" />
  <path
     d="m 9.7101355,115.86537 c 15.6999995,1.22 261.2300045,11.45 265.5000045,11.45 4.27,0 82.27,0.91 89.58,0.3 7.31,-0.61 3.35,-3.35 -10.36,-5.18 -13.71,-1.83 -188.3,-24.989996 -188.3,-24.989996 l -110.910005,-5.48 c 0,0 3.7,18.929996 -33.12,19.179996 -25.2999995,0.18 -28.0899995,3.5 -12.3899995,4.72 z"
     fill="#6d6a66"
     id="path173" />
  <path
     d="m 61.020135,33.525374 c -1.19,-2.67 0.84,-5.65 3.76,-5.52 7.04,0.32 18.46,1.03 26.26,2.46 15.180005,2.79 10.760005,10.21 -3.43,13.96 -12.98,3.43 -21.31,0.98 -21.31,0.98 z"
     fill="#e86e58"
     id="path175" />
  <path
     d="m 192.52014,57.565374 c -0.41,-2.79 1.64,-5.43 4.57,-5.9 2.93,-0.46 5.64,1.43 6.05,4.22 0.41,2.79 -1.64,5.43 -4.57,5.9 -2.93,0.46 -5.64,-1.43 -6.05,-4.22 z"
     fill="url(#paint0_radial)"
     id="path177"
     style="fill:url(#paint0_radial)" />
  <path
     d="m 148.91014,65.275374 -30,-3.14 c 0,0 6.63,-30.53 23.37,-30.35 16.74,0.17 6.63,33.49 6.63,33.49 z"
     fill="#4a4844"
     id="path179" />
  <path
     d="m 190.60014,47.375374 c 1.4,-7.05 -0.23,-12.52 -0.23,-12.52 l 1.72,-0.1 0.04,-0.03 c -3.38,-12.6 -15.81,-21.58 -29.9,-20.78 -15.88,0.9 -27.87,13.88 -26.77,28.98 1.1,15.1 14.86,26.63 30.74,25.73 12.53,-0.71 22.63,-8.94 25.8,-19.8 0.08,-0.46 0.01,-1.27 -1.4,-1.48 z"
     fill="url(#paint1_radial)"
     id="path181"
     style="fill:url(#paint1_radial)" />
  <path
     d="m 190.07014,53.745374 -49.65,2.81 c 1.24,1.74 2.69,3.33 4.3,4.75 l 41.77,-2.36 c 1.39,-1.59 2.6,-3.33 3.58,-5.2 z"
     fill="#d8cff7"
     id="path183" />
  <path
     d="m 175.23014,61.075374 9.32,-0.53 -0.57,-7.84 -9.31,0.53 z"
     fill="#512bd4"
     id="path185" />
  <path
     d="m 176.65014,58.055374 c -0.06,0 -0.12,-0.01 -0.16,-0.05 -0.05,-0.04 -0.07,-0.08 -0.08,-0.14 0,-0.06 0.01,-0.11 0.05,-0.15 0.04,-0.04 0.09,-0.07 0.15,-0.07 0.06,0 0.12,0.01 0.16,0.05 0.05,0.04 0.07,0.09 0.08,0.14 0,0.06 -0.02,0.1 -0.06,0.15 -0.03,0.05 -0.08,0.07 -0.14,0.07 z"
     fill="#ffffff"
     id="path187" />
  <path
     d="m 179.12014,57.895374 -0.4,0.02 -1.17,-1.54 c -0.03,-0.04 -0.05,-0.08 -0.08,-0.12 h -0.01 c 0.01,0.05 0.02,0.14 0.03,0.3 l 0.1,1.42 -0.36,0.02 -0.15,-2.17 0.43,-0.02 1.13,1.5 c 0.05,0.06 0.08,0.1 0.09,0.13 h 0.01 c -0.01,-0.06 -0.03,-0.15 -0.04,-0.29 l -0.1,-1.4 0.35,-0.02 z"
     fill="#ffffff"
     id="path189" />
  <path
     d="m 180.86014,57.795374 -1.25,0.07 -0.15,-2.17 1.2,-0.06 0.02,0.31 -0.83,0.04 0.04,0.61 0.76,-0.04 0.02,0.3 -0.76,0.04 0.04,0.64 0.88,-0.05 z"
     fill="#ffffff"
     id="path191" />
  <path
     d="m 182.50014,55.835374 -0.64,0.03 0.13,1.86 -0.37,0.02 -0.13,-1.86 -0.64,0.03 -0.02,-0.31 1.64,-0.09 z"
     fill="#ffffff"
     id="path193" />
  <path
     d="m 190.67014,47.375374 c 1.38,-6.96 -0.19,-12.38 -0.23,-12.51 l -29.83,1.69 c 0,0 -1.89,-0.07 -1.77,1.56 0.12,1.63 0.52,6.24 0.89,11.35 0.08,1.05 1.02,1.5 1.73,1.46 -0.01,0 28.54,-2.38 29.21,-3.55 z"
     fill="url(#paint2_radial)"
     id="path195"
     style="fill:url(#paint2_radial)" />
  <path
     d="m 172.87014,48.395374 c 0,0 4.34,-3.71 5.19,-4.4 0.85,-0.69 1.63,-0.77 2.5,-0.14 0.87,0.63 5.71,3.79 5.71,3.79 z"
     fill="#a08be8"
     id="path197" />
  <path
     d="m 191.91014,49.215374 c 0,0 0.75,-1.54 -1.24,-1.84 0,-0.01 -29.33,1.64 -29.33,1.64 -0.68,0.04 -1.59,-0.3 -1.71,-0.92 0.03,0.45 0.07,0.91 0.1,1.37 0.07,0.95 0.85,1.41 1.52,1.46 0.07,0 0.13,0.01 0.2,0 l 2.01,-0.11 z"
     fill="#512bd4"
     id="path199" />
  <path
     d="m 168.41214,45.976374 c 1.236,-0.123 2.079,-1.831 1.881,-3.815 -0.197,-1.984 -1.359,-3.493 -2.596,-3.37 -1.236,0.123 -2.079,1.831 -1.881,3.815 0.197,1.984 1.359,3.493 2.596,3.37 z"
     fill="#512bd4"
     id="path201" />
  <path
     d="m 167.90014,40.595374 c 0.43,-0.46 1.03,-0.69 1.64,-0.67 0.4,0.61 0.68,1.41 0.76,2.31 0.05,0.56 0.01,1.1 -0.09,1.58 -0.7,0.23 -1.5,0.11 -2.1,-0.39 -0.88,-0.73 -0.98,-2 -0.21,-2.83 z"
     fill="#8065e0"
     id="path203" />
  <path
     d="m 186.53214,44.955374 c 1.236,-0.123 2.079,-1.831 1.882,-3.815 -0.198,-1.984 -1.36,-3.492 -2.596,-3.369 -1.237,0.122 -2.08,1.83 -1.882,3.814 0.197,1.984 1.359,3.493 2.596,3.37 z"
     fill="#512bd4"
     id="path205" />
  <path
     d="m 186.02014,39.575374 c 0.43,-0.46 1.03,-0.69 1.64,-0.67 0.4,0.61 0.68,1.41 0.76,2.31 0.05,0.56 0.01,1.1 -0.09,1.58 -0.7,0.23 -1.5,0.11 -2.1,-0.39 -0.88,-0.73 -0.98,-2 -0.21,-2.83 z"
     fill="#8065e0"
     id="path207" />
  <path
     d="m 170.89014,65.675374 c -0.45,0.15 -11.13,3.7 -19.07,-1.65 -4.59,-3.09 -7.23,-8.39 -7.87,-15.74 l 5.1,-0.65 c 0.49,5.68 2.38,9.68 5.63,11.88 5.92,4.01 14.69,1.14 14.77,1.11 z"
     fill="#8a6fe8"
     id="path209" />
  <path
     d="m 199.75014,56.665374 -5.68,5.76 c -0.94,0.95 -0.98,2.48 -0.1,3.43 l 0.16,0.17 c 0.88,0.94 2.36,0.94 3.29,-0.01 l 5.68,-5.76 c 0.94,-0.95 0.98,-2.48 0.1,-3.43 l -0.16,-0.17 c -0.88,-0.94 -2.35,-0.94 -3.29,0.01 z"
     fill="#8a6fe8"
     id="path211" />
  <path
     d="m 196.23014,71.775374 4.36,2.59 c 1.17,0.68 2.67,0.23 3.37,-1 0.69,-1.24 0.31,-2.79 -0.85,-3.47 l -4.47,-2.66 z"
     fill="#8a6fe8"
     id="path213" />
  <path
     d="m 198.85014,70.835374 6.97,0.61 c 1.35,0.11 2.57,-0.94 2.72,-2.34 0.15,-1.41 -0.82,-2.64 -2.16,-2.75 l -5.18,-0.48 z"
     fill="#8a6fe8"
     id="path215" />
  <path
     d="m 198.45014,67.755374 6.98,-1.06 c 1.35,-0.2 2.32,-1.5 2.17,-2.89 -0.15,-1.4 -1.36,-2.37 -2.71,-2.17 l -7.11,1.07 z"
     fill="#8a6fe8"
     id="path217" />
  <path
     d="m 193.95014,62.705374 c 2.18,-1.97 5.42,-1.78 7.24,0.43 1.82,2.2 1.53,5.59 -0.65,7.55 -2.18,1.97 -5.42,1.78 -7.24,-0.43 -1.82,-2.2 -1.53,-5.59 0.65,-7.55 z"
     fill="url(#paint3_radial)"
     id="path219"
     style="fill:url(#paint3_radial)" />
  <path
     d="m 159.35014,12.555374 5.37,-0.32 -1.55,-9.2099999 -3.85,0.23 z"
     fill="#8a6fe8"
     id="path221" />
  <path
     d="m 162.47014,6.7353741 c -1.92,0.6 -4.01,-0.39 -4.67,-2.2 -0.66,-1.81 0.36,-3.76999998 2.28,-4.35999998 1.92,-0.6 4.01,0.39 4.67,2.19999998 0.66,1.81 -0.36,3.76 -2.28,4.36 z"
     fill="#d8cff7"
     id="path223" />
  <path
     d="m 157.56014,15.845374 c -0.24,0.01 -0.46,-0.17 -0.44,-0.4 0.09,-2.41 2.1,-4.41 4.72,-4.57 2.62,-0.16 4.94,1.58 5.42,3.96 0.04,0.23 -0.13,0.43 -0.37,0.45 z"
     fill="#522cd5"
     id="path225" />
  <path
     d="m 147.90014,41.395374 c 2.65,1.19 3.81,4.19 2.58,6.71 -1.23,2.52 -4.38,3.58 -7.03,2.39 -2.65,-1.19 -3.81,-4.19 -2.58,-6.71 1.23,-2.52 4.37,-3.59 7.03,-2.39 z"
     fill="url(#paint4_radial)"
     id="path227"
     style="fill:url(#paint4_radial)" />
  <path
     d="m 38.710135,65.785374 c -2.71,0 -7.36,0 -11.25,0 -0.89,0 -1.63,1.56 -2.22,4.11 -6.96,4.62 -11.58,12.7 -11.58,21.91 0,8.839996 4.25,16.639996 10.74,21.339996 0.44,2.89 1.01,4.68 1.71,4.68 3.79,0 7.72,0 12.6,0 13.83,0 25.05,-11.65 25.05,-26.019996 0,-14.37 -11.22,-26.02 -25.05,-26.02 z"
     fill="#4a4844"
     id="path229" />
  <path
     d="m 27.460135,117.82537 c 13.835,0 25.05,-11.65 25.05,-26.019996 0,-14.37 -11.215,-26.02 -25.05,-26.02 -13.835,0 -25.0499995,11.65 -25.0499995,26.02 0,14.369996 11.2149995,26.019996 25.0499995,26.019996 z"
     fill="#797672"
     id="path231" />
  <path
     d="m 27.460135,110.97537 c 10.195,0 18.46,-8.583 18.46,-19.169996 0,-10.587 -8.265,-19.17 -18.46,-19.17 -10.195,0 -18.4599995,8.583 -18.4599995,19.17 0,10.586996 8.2649995,19.169996 18.4599995,19.169996 z"
     fill="#ffffff"
     id="path233" />
  <path
     d="m 27.460135,106.23537 c 7.671,0 13.89,-6.460996 13.89,-14.429996 0,-7.969 -6.219,-14.43 -13.89,-14.43 -7.671,0 -13.89,6.461 -13.89,14.43 0,7.969 6.219,14.429996 13.89,14.429996 z"
     fill="#cccac7"
     id="path235" />
  <path
     d="m 31.210135,96.475374 c 2.485,0 4.5,-2.091 4.5,-4.67 0,-2.579 -2.015,-4.67 -4.5,-4.67 -2.485,0 -4.5,2.091 -4.5,4.67 0,2.579 2.015,4.67 4.5,4.67 z"
     fill="#ffffff"
     id="path237" />
  <path
     d="m 44.070135,61.265374 -4.71,-23.03 3.67,0.53 15.43,23.28 z"
     fill="#4a4844"
     id="path239" />
  <path
     d="m 77.830135,60.215374 -4.71,-23.02 3.66,0.52 15.44,23.29 z"
     fill="#4a4844"
     id="path241" />
  <path
     d="m 15.550135,32.485374 c 0.78,-0.52 56.52,1.57 63.84,1.83 7.33,0.26 11.49,3.82 -3.92,4.71 -18.05,1.05 -60.44,0 -60.44,0 z"
     fill="#f2a694"
     id="path243" />
  <path
     d="m 317.55014,74.995374 c -2.43,0 -6.59,0 -10.07,0 -0.8,0 -1.46,1.37 -1.98,3.6 -6.23,4.06 -10.37,11.15 -10.37,19.24 0,7.759996 3.81,14.609996 9.62,18.739996 0.39,2.54 0.9,4.11 1.53,4.11 3.4,0 6.91,0 11.28,0 12.38,0 22.42,-10.23 22.42,-22.849996 -0.01,-12.62 -10.05,-22.84 -22.43,-22.84 z"
     fill="#4a4844"
     id="path245" />
  <path
     d="m 307.48014,120.68537 c 12.382,0 22.42,-10.23 22.42,-22.849996 0,-12.62 -10.038,-22.85 -22.42,-22.85 -12.382,0 -22.42,10.23 -22.42,22.85 0,12.619996 10.038,22.849996 22.42,22.849996 z"
     fill="#797672"
     id="path247" />
  <path
     d="m 307.48014,114.66537 c 9.124,0 16.52,-7.535 16.52,-16.829996 0,-9.295 -7.396,-16.83 -16.52,-16.83 -9.124,0 -16.52,7.535 -16.52,16.83 0,9.294996 7.396,16.829996 16.52,16.829996 z"
     fill="#ffffff"
     id="path249" />
  <path
     d="m 307.48014,110.11537 c 6.655,0 12.05,-5.498 12.05,-12.279996 0,-6.782 -5.395,-12.28 -12.05,-12.28 -6.655,0 -12.05,5.498 -12.05,12.28 0,6.781996 5.395,12.279996 12.05,12.279996 z"
     fill="#cccac7"
     id="path251" />
  <path
     d="m 369.09014,124.72537 -35.57,-2.08 4.15,-18.95 c 0,0 0.68,-2.28 12.72,1.3 11.98,3.56 19.37,12.37 22.56,17.02 0.85,1.23 -0.1,2.89 -1.59,2.82 z"
     fill="#dc624f"
     id="path253" />
  <path
     d="m 308.91014,106.08537 36.36,2.6 c 0,0 6.4,3.47 8.27,6.14 1.87,2.67 -1.55,5.96 -1.55,5.96 l -23.48,0.28 z"
     fill="#cc5444"
     id="path255" />
  <path
     d="m 0.38013549,33.675374 c -1.22,-2.74 0.86000001,-5.81 3.86000001,-5.67 7.4999995,0.34 19.8799995,1.09 28.3099995,2.64 16.21,2.98 11.5,10.91 -3.66,14.91 -13.87,3.66 -22.7599995,1.05 -22.7599995,1.05 z"
     fill="#e86e58"
     id="path257" />
  <path
     d="m 328.49014,105.74537 c -25.64,-14.129996 -62.01,-33.489996 -92.63,-37.419996 -30.61,-3.93 -105.71,-6.8 -105.71,-6.8 0,0 -0.43,-8.29 3.66,-17.79 0.52,-1.2 1.05,-2.29 1.59,-3.32 0.1,-4.3 1.27,-8.37 3.26,-11.98 l -20.64,5.8 c 0,0 -28.430005,21.28 -52.510005,23.37 -24.07,2.09 -60.6999995,-1.83 -60.6999995,-1.83 l 4.97,9.68 c 0,0 14.1299995,-1.31 32.1799995,4.71 18.05,6.02 24.07,44.219996 24.07,44.219996 0,0 141.030005,3.92 141.820005,3.66 0.78,-0.26 94.72,2.88 94.72,2.88 0,0 14.39,1.31 21.72,1.57 7.34,0.26 29.84,-2.62 4.2,-16.75 z"
     fill="#e86e58"
     id="path259" />
  <path
     d="m 328.49014,105.74537 c -25.64,-14.129996 -62.01,-33.489996 -92.63,-37.419996 -30.61,-3.93 -105.71,-6.8 -105.71,-6.8 0,0 -0.43,-8.29 3.66,-17.79 0.52,-1.2 1.05,-2.29 1.59,-3.32 0.1,-4.3 1.27,-8.37 3.26,-11.98 l -18.19,1.73 c -1.52,0.14 -2.95,0.74 -4.12,1.71 -6.57,5.43 -30.320005,23.94 -50.830005,25.72 -8.68,0.75 -18.98,0.73 -28.62,0.38 35.26,3.3 178.190005,16.75 191.020005,19.5 10.24,2.19 73.95,26.869996 111.42,41.539996 2.61,-2.51 1.15,-6.66 -10.85,-13.27 z"
     fill="#f2a694"
     id="path261" />
  <path
     d="m 227.92014,75.265374 c -2.71,0 -7.36,0 -11.25,0 -0.89,0 -1.63,1.53 -2.22,4.03 -6.96,4.53 -11.58,12.46 -11.58,21.499996 0,8.67 4.25,16.32 10.74,20.93 0.44,2.84 1.01,4.59 1.71,4.59 3.79,0 7.72,0 12.6,0 13.83,0 25.05,-11.43 25.05,-25.52 0,-14.099996 -11.22,-25.529996 -25.05,-25.529996 z"
     fill="#4a4844"
     id="path263" />
  <path
     d="m 216.67014,126.30537 c 13.835,0 25.05,-11.426 25.05,-25.52 0,-14.093996 -11.215,-25.519996 -25.05,-25.519996 -13.835,0 -25.05,11.426 -25.05,25.519996 0,14.094 11.215,25.52 25.05,25.52 z"
     fill="#797672"
     id="path265" />
  <path
     d="m 216.67014,119.59537 c 10.195,0 18.46,-8.422 18.46,-18.81 0,-10.388996 -8.265,-18.809996 -18.46,-18.809996 -10.195,0 -18.46,8.421 -18.46,18.809996 0,10.388 8.265,18.81 18.46,18.81 z"
     fill="#ffffff"
     id="path267" />
  <path
     d="m 216.67014,114.94537 c 7.671,0 13.89,-6.34 13.89,-14.16 0,-7.819996 -6.219,-14.159996 -13.89,-14.159996 -7.671,0 -13.89,6.34 -13.89,14.159996 0,7.82 6.219,14.16 13.89,14.16 z"
     fill="#cccac7"
     id="path269" />
  <path
     d="m 220.42014,105.36537 c 2.485,0 4.5,-2.051 4.5,-4.58 0,-2.529996 -2.015,-4.579996 -4.5,-4.579996 -2.485,0 -4.5,2.05 -4.5,4.579996 0,2.529 2.015,4.58 4.5,4.58 z"
     fill="#fdfdfd"
     id="path271" />
  <path
     d="m 136.23014,78.075374 13.29,0.2 -18,29.269996 c -1.44,2.34 -4.02,3.72 -6.77,3.63 l -12.92,-0.45 17.92,-29.099996 c 1.39,-2.24 3.85,-3.59 6.48,-3.55 z"
     fill="#4a4844"
     id="path273" />
  <path
     d="m 116.11014,59.865374 c 5.296,0 9.59,-4.294 9.59,-9.59 0,-5.296 -4.294,-9.59 -9.59,-9.59 -5.296,0 -9.59,4.294 -9.59,9.59 0,5.296 4.294,9.59 9.59,9.59 z"
     fill="#ffffff"
     id="path275" />
  <path
     d="m 255.23014,105.74537 39.77,2.09 c 0,0 7.06,3.66 9.16,6.54 2.1,2.88 -1.57,6.54 -1.57,6.54 l -25.64,0.78 z"
     fill="#cc5444"
     id="path277" />
  <path
     d="m 278.77014,124.84537 -35.85,-2.09 4.19,-19.1 c 0,0 0.69,-2.29 12.82,1.31 11.72,3.48 19.08,11.95 22.44,16.73 0.99,1.4 -0.06,3.32 -1.77,3.24 z"
     fill="#dc624f"
     id="path279" />
  <path
     d="m 212.90014,65.775374 c -1.63,-9.13 -9.17,-15.24 -18.59,-15.24 -8.57,0 -15.37,4.98 -17.84,12.88 12.35,0.69 24.76,1.44 36.43,2.36 z"
     fill="#4a4844"
     id="path281" />
  <path
     d="m 195.05014,49.085374 -0.47,2.04 c -0.26,1.25 0.59,2.49 1.91,2.76 l 0.23,0.05 c 1.32,0.27 2.6,-0.52 2.86,-1.77 l 0.47,-2.04 c 0.26,-1.25 -0.59,-2.49 -1.91,-2.76 l -0.23,-0.05 c -1.32,-0.28 -2.6,0.51 -2.86,1.77 z"
     fill="#8a6fe8"
     id="path283" />
  <path
     d="m 199.90014,50.155374 -0.86,1.9 c -0.51,1.17 0.09,2.55 1.32,3.08 l 0.22,0.09 c 1.24,0.53 2.65,0 3.16,-1.17 l 0.86,-1.9 c 0.51,-1.17 -0.09,-2.55 -1.32,-3.08 l -0.22,-0.09 c -1.24,-0.53 -2.66,-0.01 -3.16,1.17 z"
     fill="#8a6fe8"
     id="path285" />
  <path
     d="m 204.21014,52.405374 -1.25,1.68 c -0.74,1.04 -0.45,2.51 0.65,3.29 l 0.2,0.14 c 1.1,0.78 2.59,0.56 3.33,-0.48 l 1.25,-1.68 c 0.74,-1.04 0.45,-2.51 -0.65,-3.29 l -0.2,-0.14 c -1.09,-0.77 -2.59,-0.56 -3.33,0.48 z"
     fill="#8a6fe8"
     id="path287" />
  <path
     d="m 178.09014,58.205374 1.57,1.38 c 0.97,0.83 2.47,0.66 3.33,-0.36 l 0.15,-0.18 c 0.87,-1.03 0.78,-2.53 -0.19,-3.36 l -1.57,-1.38 c -0.97,-0.83 -2.47,-0.66 -3.33,0.36 l -0.15,0.18 c -0.88,1.02 -0.79,2.53 0.19,3.36 z"
     fill="#8a6fe8"
     id="path289" />
  <path
     d="m 181.64014,55.195374 1.24,1.68 c 0.78,1.01 2.27,1.17 3.34,0.35 l 0.19,-0.15 c 1.06,-0.82 1.3,-2.31 0.52,-3.33 l -1.24,-1.68 c -0.78,-1.01 -2.27,-1.17 -3.34,-0.35 l -0.19,0.15 c -1.07,0.82 -1.3,2.31 -0.52,3.33 z"
     fill="#8a6fe8"
     id="path291" />
  <path
     d="m 167.11014,63.225374 5.7,-7.85 40.55,-1.57 10.38,13.21 z"
     fill="#a3c9f6"
     id="path293" />
  <path
     d="m 213.00014,66.305374 10.74,0.72 -10.38,-13.21 -10.2,0.48 c 3.31,4 7.67,8.89 9.84,12.01 z"
     fill="#cae0fa"
     id="path295" />
  <path
     d="m 90.750135,115.06537 c 4.76,-0.51 11.770005,-4.04 16.120005,-9.84 4.71,-6.279996 13.61,-20.409996 13.61,-20.409996 0,0 -39.250005,-1.57 -43.960005,-2.09 -4.71,-0.52 -19.76,-9.36 -27.47,-13.34 -3.79,-1.96 -16.8,-3.24 -29.19,-3.76 5.73,0.47 13.46,1.66 22.12,4.55 18.05,6.02 24.07,44.219996 24.07,44.219996 0,0 10.01,0.26 24.7,0.67 z"
     fill="#cc5444"
     id="path297" />
  <path
     d="m 106.70014,87.895374 3.66,0.13 -9.33,15.179996 c -0.79,1.28 -2.220005,2.02 -3.730005,1.92 l -3.02,-0.21 9.530005,-15.459996 c 0.61,-1.01 1.72,-1.61 2.89,-1.56 z"
     fill="#4a4844"
     id="path299" />
  <path
     d="m 96.140135,87.435374 3.66,0.13 -9.33,15.179996 c -0.79,1.28 -2.22,2.02 -3.73,1.92 l -3.02,-0.21 9.53,-15.459996 c 0.61,-1.01 1.71,-1.61 2.89,-1.56 z"
     fill="#4a4844"
     id="path301" />
  <path
     d="m 296.47214,95.152374 c 0.709,-1.757 -7.921,-6.896 -19.275,-11.479 -11.354,-4.583 -21.133,-6.874 -21.842,-5.118 -0.709,1.757 7.921,6.896 19.275,11.479 11.354,4.583 21.133,6.875 21.842,5.118 z"
     fill="#ffffff"
     id="path303" />
  <defs
     id="defs342">
    <radialGradient
       id="paint0_radial"
       cx="0"
       cy="0"
       r="1"
       gradientUnits="userSpaceOnUse"
       gradientTransform="matrix(4.1780204,3.1155732,-3.1539337,4.2294622,199.14614,55.113374)">
      <stop
         stop-color="#8065E0"
         id="stop317" />
      <stop
         offset="1"
         stop-color="#512BD4"
         id="stop319" />
    </radialGradient>
    <radialGradient
       id="paint1_radial"
       cx="0"
       cy="0"
       r="1"
       gradientUnits="userSpaceOnUse"
       gradientTransform="matrix(-28.635127,1.6215079,-1.5440988,-27.268117,169.97314,30.479374)">
      <stop
         offset="0.4744"
         stop-color="#A08BE8"
         id="stop322" />
      <stop
         offset="0.8618"
         stop-color="#8065E0"
         id="stop324" />
    </radialGradient>
    <radialGradient
       id="paint2_radial"
       cx="0"
       cy="0"
       r="1"
       gradientUnits="userSpaceOnUse"
       gradientTransform="matrix(-29.67516,1.6804014,-1.6001825,-28.25853,189.47414,30.393374)">
      <stop
         offset="0.0933"
         stop-color="#E1DFDD"
         id="stop327" />
      <stop
         offset="0.6573"
         stop-color="white"
         id="stop329" />
    </radialGradient>
    <radialGradient
       id="paint3_radial"
       cx="0"
       cy="0"
       r="1"
       gradientUnits="userSpaceOnUse"
       gradientTransform="matrix(3.2451312,-4.2594734,4.0860657,3.1130184,196.10614,65.016374)">
      <stop
         stop-color="#8065E0"
         id="stop332" />
      <stop
         offset="1"
         stop-color="#512BD4"
         id="stop334" />
    </radialGradient>
    <radialGradient
       id="paint4_radial"
       cx="0"
       cy="0"
       r="1"
       gradientUnits="userSpaceOnUse"
       gradientTransform="matrix(5.281179,-0.29906501,0.2847875,5.0290529,144.54014,44.344374)">
      <stop
         stop-color="#8065E0"
         id="stop337" />
      <stop
         offset="1"
         stop-color="#512BD4"
         id="stop339" />
    </radialGradient>
  </defs>
</svg>
