<?xml version="1.0" encoding="UTF-8" standalone="no"?>
<svg
   width="99.999992pt"
   height="100pt"
   version="1.1"
   viewBox="0 0 119.05999 118.6092"
   id="svg90"
   sodipodi:docname="full-black-logo.svg"
   inkscape:version="1.2.2 (732a01da63, 2022-12-09, custom)"
   inkscape:export-filename="full-black-logo2.svg"
   inkscape:export-xdpi="304.01"
   inkscape:export-ydpi="304.01"
   xmlns:inkscape="http://www.inkscape.org/namespaces/inkscape"
   xmlns:sodipodi="http://sodipodi.sourceforge.net/DTD/sodipodi-0.dtd"
   xmlns="http://www.w3.org/2000/svg"
   xmlns:svg="http://www.w3.org/2000/svg">
  <sodipodi:namedview
     id="namedview392"
     pagecolor="#ffffff"
     bordercolor="#666666"
     borderopacity="1.0"
     inkscape:showpageshadow="2"
     inkscape:pageopacity="0.0"
     inkscape:pagecheckerboard="0"
     inkscape:deskcolor="#d1d1d1"
     inkscape:document-units="pt"
     showgrid="false"
     showguides="true"
     inkscape:zoom="8"
     inkscape:cx="89.75"
     inkscape:cy="53.8125"
     inkscape:window-width="1866"
     inkscape:window-height="1016"
     inkscape:window-x="54"
     inkscape:window-y="27"
     inkscape:window-maximized="1"
     inkscape:current-layer="svg90">
    <sodipodi:guide
       position="48.724748,90.674039"
       orientation="0,-1"
       id="guide1410"
       inkscape:locked="false" />
    <sodipodi:guide
       position="50.913853,82.759727"
       orientation="0,-1"
       id="guide1412"
       inkscape:locked="false" />
    <sodipodi:guide
       position="44.255215,86.614657"
       orientation="1,0"
       id="guide1414"
       inkscape:locked="false" />
    <sodipodi:guide
       position="52.192228,86.164263"
       orientation="1,0"
       id="guide1416"
       inkscape:locked="false" />
    <sodipodi:guide
       position="48.233093,66.621054"
       orientation="1,0"
       id="guide1418"
       inkscape:locked="false" />
    <sodipodi:guide
       position="46.977539,86.709819"
       orientation="0,-1"
       id="guide1420"
       inkscape:locked="false" />
    <sodipodi:guide
       position="47.407334,74.852616"
       orientation="0,-1"
       id="guide1422"
       inkscape:locked="false" />
    <sodipodi:guide
       position="46.843045,66.93993"
       orientation="0,-1"
       id="guide1424"
       inkscape:locked="false" />
    <sodipodi:guide
       position="46.647058,59.025514"
       orientation="0,-1"
       id="guide1426"
       inkscape:locked="false" />
    <sodipodi:guide
       position="37.177895,78.770502"
       orientation="0,-1"
       id="guide4332"
       inkscape:locked="false" />
    <sodipodi:guide
       position="36.44352,70.850472"
       orientation="0,-1"
       id="guide4334"
       inkscape:locked="false" />
    <sodipodi:guide
       position="-2.4839647e-22,63.005217"
       orientation="0,-1"
       id="guide4336"
       inkscape:locked="false" />
  </sodipodi:namedview>
  <defs
     id="defs94" />
  <rect
     style="fill:#512bd4;fill-opacity:1;fill-rule:evenodd;stroke-width:2.02045"
     id="rect338"
     width="119.06"
     height="119.06"
     x="-3.1554436e-30"
     y="-0.2254" />
  <path
     fill="#512bd4"
     d="m 52.1937,31.789995 a 3.9688,3.9688 0 0 1 -3.9688,3.9688 3.9688,3.9688 0 0 1 -3.9688,-3.9688 3.9688,3.9688 0 0 1 3.9688,-3.9688 3.9688,3.9688 0 0 1 3.9688,3.9688 z"
     id="path38"
     style="fill:#ffffff" />
  <path
     fill="#512bd4"
     d="m 59.3287,31.789995 a 3.175,3.175 0 0 1 -3.175,3.175 3.175,3.175 0 0 1 -3.175,-3.175 3.175,3.175 0 0 1 3.175,-3.175 3.175,3.175 0 0 1 3.175,3.175 z"
     id="path40"
     style="fill:#ffffff" />
  <path
     fill="#512bd4"
     d="m 66.4647,31.789995 a 2.3812,2.3813 0 0 1 -2.3812,2.3813 2.3812,2.3813 0 0 1 -2.3812,-2.3813 2.3812,2.3813 0 0 1 2.3812,-2.3812 2.3812,2.3813 0 0 1 2.3812,2.3812 z"
     id="path42"
     style="fill:#ffffff" />
  <path
     fill="#512bd4"
     d="m 73.6007,31.809995 a 1.5875,1.5875 0 0 1 -1.5875,1.5875 1.5875,1.5875 0 0 1 -1.5875,-1.5875 1.5875,1.5875 0 0 1 1.5875,-1.5875 1.5875,1.5875 0 0 1 1.5875,1.5875 z"
     id="path44"
     style="fill:#ffffff" />
  <path
     fill="#512bd4"
     d="m 52.1937,39.729995 a 3.9688,3.9688 0 0 1 -3.9688,3.9688 3.9688,3.9688 0 0 1 -3.9688,-3.9688 3.9688,3.9688 0 0 1 3.9688,-3.9688 3.9688,3.9688 0 0 1 3.9688,3.9688 z"
     id="path46"
     style="fill:#ffffff" />
  <path
     fill="#512bd4"
     d="m 59.3287,39.729995 a 3.175,3.175 0 0 1 -3.175,3.175 3.175,3.175 0 0 1 -3.175,-3.175 3.175,3.175 0 0 1 3.175,-3.175 3.175,3.175 0 0 1 3.175,3.175 z"
     id="path48"
     style="fill:#ffffff" />
  <path
     fill="#512bd4"
     d="m 66.4647,39.729995 a 2.3812,2.3813 0 0 1 -2.3812,2.3812 2.3812,2.3813 0 0 1 -2.3812,-2.3812 2.3812,2.3813 0 0 1 2.3812,-2.3812 2.3812,2.3813 0 0 1 2.3812,2.3812 z"
     id="path50"
     style="fill:#ffffff" />
  <path
     fill="#512bd4"
     d="m 73.6007,39.749995 a 1.5875,1.5875 0 0 1 -1.5875,1.5875 1.5875,1.5875 0 0 1 -1.5875,-1.5875 1.5875,1.5875 0 0 1 1.5875,-1.5875 1.5875,1.5875 0 0 1 1.5875,1.5875 z"
     id="path52"
     style="fill:#ffffff" />
  <path
     fill="#512bd4"
     d="m 52.1977,47.669995 a 3.9688,3.9688 0 0 1 -3.9688,3.9688 3.9688,3.9688 0 0 1 -3.9688,-3.9688 3.9688,3.9688 0 0 1 3.9688,-3.9688 3.9688,3.9688 0 0 1 3.9688,3.9688 z"
     id="path54"
     style="fill:#ffffff" />
  <path
     fill="#512bd4"
     d="m 59.3337,47.669995 a 3.175,3.175 0 0 1 -3.175,3.175 3.175,3.175 0 0 1 -3.175,-3.175 3.175,3.175 0 0 1 3.175,-3.175 3.175,3.175 0 0 1 3.175,3.175 z"
     id="path56"
     style="fill:#ffffff" />
  <path
     fill="#512bd4"
     d="m 66.4697,47.669995 a 2.3812,2.3813 0 0 1 -2.3812,2.3812 2.3812,2.3813 0 0 1 -2.3812,-2.3812 2.3812,2.3813 0 0 1 2.3812,-2.3813 2.3812,2.3813 0 0 1 2.3812,2.3813 z"
     id="path58"
     style="fill:#ffffff" />
  <path
     fill="#512bd4"
     d="m 73.6047,47.689995 a 1.5875,1.5875 0 0 1 -1.5875,1.5875 1.5875,1.5875 0 0 1 -1.5875,-1.5875 1.5875,1.5875 0 0 1 1.5875,-1.5875 1.5875,1.5875 0 0 1 1.5875,1.5875 z"
     id="path60"
     style="fill:#ffffff" />
  <path
     fill="#512bd4"
     d="m 52.1987,55.609995 a 3.9688,3.9688 0 0 1 -3.9688,3.9688 3.9688,3.9688 0 0 1 -3.9688,-3.9688 3.9688,3.9688 0 0 1 3.9688,-3.9688 3.9688,3.9688 0 0 1 3.9688,3.9688 z"
     id="path62"
     style="fill:#ffffff" />
  <path
     fill="#512bd4"
     d="m 59.3337,55.609995 a 3.175,3.175 0 0 1 -3.175,3.175 3.175,3.175 0 0 1 -3.175,-3.175 3.175,3.175 0 0 1 3.175,-3.175 3.175,3.175 0 0 1 3.175,3.175 z"
     id="path64"
     style="fill:#ffffff" />
  <path
     fill="#512bd4"
     d="m 66.4697,55.609995 a 2.3812,2.3813 0 0 1 -2.3812,2.3812 2.3812,2.3813 0 0 1 -2.3812,-2.3812 2.3812,2.3813 0 0 1 2.3812,-2.3812 2.3812,2.3813 0 0 1 2.3812,2.3812 z"
     id="path66"
     style="fill:#ffffff" />
  <path
     fill="#512bd4"
     d="m 73.6057,55.629995 a 1.5875,1.5875 0 0 1 -1.5875,1.5875 1.5875,1.5875 0 0 1 -1.5875,-1.5875 1.5875,1.5875 0 0 1 1.5875,-1.5875 1.5875,1.5875 0 0 1 1.5875,1.5875 z"
     id="path68"
     style="fill:#ffffff" />
  <path
     d="m 43.791364,99.158935 c -0.354635,0 -0.656077,-0.11813 -0.904327,-0.3545 -0.248251,-0.24243 -0.372376,-0.53027 -0.372376,-0.86355 0,-0.33943 0.124125,-0.63025 0.372376,-0.87267 0.24825,-0.24242 0.549692,-0.36364 0.904327,-0.36364 0.360551,0 0.664955,0.12122 0.913204,0.36364 0.254158,0.24242 0.381242,0.53324 0.381242,0.87267 0,0.33328 -0.127084,0.62112 -0.381242,0.86355 -0.248249,0.23637 -0.552653,0.3545 -0.913204,0.3545 z"
     fill="#ffffff"
     id="path4-5"
     style="stroke-width:0.109991" />
  <path
     d="m 57.968515,98.958965 h -2.305201 l -6.073178,-9.581238 c -0.153658,-0.24242 -0.28081,-0.49398 -0.381232,-0.75454 h -0.05323 c 0.0473,0.27883 0.07094,0.87575 0.07094,1.79077 v 8.545008 H 47.187372 V 85.923337 h 2.455889 l 5.869363,9.353998 c 0.248252,0.38794 0.40785,0.65456 0.478792,0.79997 h 0.03541 c -0.05907,-0.34538 -0.08865,-0.9302 -0.08865,-1.75448 v -8.399488 h 2.030336 z"
     fill="#ffffff"
     id="path6-9"
     style="stroke-width:0.109991" />
  <path
     d="M 67.89876,98.958965 H 60.761635 V 85.923337 h 6.853458 v 1.83631 h -4.743271 v 3.690648 h 4.370949 v 1.82717 h -4.370949 v 3.85432 h 5.026938 z"
     fill="#ffffff"
     id="path8-5"
     style="stroke-width:0.109991" />
  <path
     d="M 78.041951,87.759647 H 74.389136 V 98.958965 H 72.278951 V 87.759647 h -3.643907 v -1.83631 h 9.406907 z"
     fill="#ffffff"
     id="path10-3"
     style="stroke-width:0.109991" />
  <path
     d="m 25.23601,80.688108 q 0,0.902251 -0.455777,1.544059 -0.446475,0.632506 -1.31152,0.967362 -0.865046,0.325555 -2.130058,0.325555 -1.051077,0 -1.878916,-0.186031 Q 18.6319,83.153022 18.073806,82.883276 V 81.95312 q 0.697618,0.344158 1.54406,0.558094 0.846442,0.213936 1.739392,0.213936 1.562663,0 2.250978,-0.530189 0.688316,-0.530189 0.688316,-1.451044 0,-0.604602 -0.344158,-0.995267 -0.334856,-0.399968 -0.967362,-0.688316 -0.632507,-0.288348 -1.525457,-0.585998 -0.930156,-0.316254 -1.655678,-0.623205 -0.71622,-0.316253 -1.125489,-0.827839 -0.409269,-0.520888 -0.409269,-1.413838 0,-1.218504 0.976664,-1.897519 0.976664,-0.679014 2.623041,-0.679014 0.911553,0 1.692884,0.17673 0.790633,0.167428 1.432441,0.437173 l -0.334856,0.799935 q -0.576697,-0.269745 -1.330124,-0.437174 -0.753426,-0.167428 -1.506853,-0.167428 -1.237108,0 -1.934725,0.437174 -0.697617,0.437173 -0.697617,1.283615 0,0.65111 0.334856,1.023172 0.334856,0.362761 0.958061,0.613903 0.623205,0.241841 1.478949,0.539491 0.883648,0.306952 1.627773,0.641808 0.753427,0.334856 1.199902,0.865045 0.446475,0.530189 0.446475,1.441743 z"
     id="path7115"
     style="font-weight:300;font-size:19.0496px;line-height:1.25;font-family:'Open Sans';-inkscape-font-specification:'Open Sans Light';fill:#ffffff;stroke-width:0.89295" />
  <path
     d="m 31.840119,83.525084 q -1.506853,0 -2.548628,-0.623205 -1.032474,-0.632506 -1.562663,-1.795201 -0.520887,-1.171997 -0.520887,-2.771866 0,-1.66498 0.604601,-2.846278 0.604602,-1.1906 1.702186,-1.823106 1.097585,-0.632507 2.576533,-0.632507 0.725522,0 1.348727,0.130222 0.623205,0.130222 1.125489,0.362761 l -0.251142,0.827839 q -0.520888,-0.232539 -1.106886,-0.353459 -0.585999,-0.12092 -1.125489,-0.12092 -1.24641,0 -2.120757,0.548792 -0.865045,0.53949 -1.330123,1.544059 -0.455777,0.995267 -0.455777,2.353296 0,1.274314 0.390666,2.260279 0.390666,0.976664 1.199902,1.54406 0.809235,0.558094 2.074248,0.558094 0.734823,0 1.395234,-0.148825 0.669713,-0.148825 1.218505,-0.381365 v 0.855744 q -0.492983,0.223238 -1.144092,0.362761 -0.641808,0.148825 -1.469647,0.148825 z"
     id="path7117"
     style="font-weight:300;font-size:19.0496px;line-height:1.25;font-family:'Open Sans';-inkscape-font-specification:'Open Sans Light';fill:#ffffff;stroke-width:0.89295" />
  <path
     d="m 37.774515,68.865821 v 4.725194 q 0,0.409269 -0.0186,0.762728 -0.0093,0.35346 -0.03721,0.716221 h 0.06511 q 0.251142,-0.576697 0.71622,-1.032474 0.47438,-0.455776 1.162696,-0.725522 0.697617,-0.269745 1.60917,-0.269745 1.153394,0 1.934725,0.399967 0.790633,0.390666 1.199902,1.199902 0.409268,0.809236 0.409268,2.08355 v 6.613411 H 43.88564 v -6.557602 q 0,-1.506853 -0.688316,-2.213772 -0.688315,-0.706919 -1.999836,-0.706919 -1.116187,0 -1.878915,0.437174 -0.762728,0.427872 -1.153394,1.302219 -0.390666,0.865045 -0.390666,2.167264 v 5.571636 H 36.835057 V 68.865821 Z"
     id="path7119"
     style="font-weight:300;font-size:19.0496px;line-height:1.25;font-family:'Open Sans';-inkscape-font-specification:'Open Sans Light';fill:#ffffff;stroke-width:0.89295" />
  <path
     d="m 51.912892,73.032921 q 1.292917,0 2.148661,0.604602 0.865045,0.604602 1.283615,1.655678 0.427872,1.051077 0.427872,2.409105 v 0.679014 h -7.301727 q 0,2.08355 0.958061,3.199738 0.967363,1.116187 2.762564,1.116187 0.939458,0 1.627774,-0.148825 0.697617,-0.158126 1.544059,-0.530189 v 0.865045 q -0.744125,0.334857 -1.48825,0.483682 -0.744125,0.158126 -1.711487,0.158126 -1.534758,0 -2.576533,-0.632506 -1.032474,-0.641808 -1.562663,-1.804503 -0.520887,-1.162696 -0.520887,-2.716057 0,-1.516154 0.502284,-2.725358 0.511586,-1.209203 1.48825,-1.90682 0.985966,-0.706919 2.418407,-0.706919 z m -0.0093,0.809236 q -1.451044,0 -2.353295,0.967363 -0.89295,0.958061 -1.051077,2.771866 h 6.297158 q 0,-1.106886 -0.316253,-1.953329 -0.316253,-0.846442 -0.958061,-1.31152 -0.632506,-0.47438 -1.618472,-0.47438 z"
     id="path7121"
     style="font-weight:300;font-size:19.0496px;line-height:1.25;font-family:'Open Sans';-inkscape-font-specification:'Open Sans Light';fill:#ffffff;stroke-width:0.89295" />
  <path
     d="m 62.20972,83.525084 q -2.074249,0 -3.162532,-1.302219 -1.078981,-1.31152 -1.078981,-3.81364 0,-2.623041 1.144092,-3.999672 1.144092,-1.376632 3.190436,-1.376632 0.874347,0 1.516155,0.269746 0.651109,0.269745 1.088283,0.734823 0.446475,0.455777 0.688316,1.041775 h 0.07441 q -0.03721,-0.492983 -0.05581,-1.060378 -0.0186,-0.567395 -0.0186,-1.041775 v -4.111291 h 0.939457 v 14.473232 h -0.762728 l -0.12092,-1.851011 h -0.05581 q -0.251143,0.558094 -0.697618,1.023172 -0.437173,0.465078 -1.097584,0.744125 -0.660411,0.269745 -1.590566,0.269745 z m 0.102317,-0.818537 q 1.7859,0 2.539327,-1.106886 0.753426,-1.116188 0.753426,-3.181135 v -0.148825 q 0,-2.139359 -0.753426,-3.27415 -0.753427,-1.144092 -2.455613,-1.144092 -1.683583,0 -2.576533,1.171997 -0.883648,1.171997 -0.883648,3.404372 0,2.102153 0.827839,3.190436 0.83714,1.088283 2.548628,1.088283 z"
     id="path7123"
     style="font-weight:300;font-size:19.0496px;line-height:1.25;font-family:'Open Sans';-inkscape-font-specification:'Open Sans Light';fill:#ffffff;stroke-width:0.89295" />
  <path
     d="m 77.743332,73.228254 v 10.110799 h -0.762728 l -0.139523,-1.823106 h -0.05581 q -0.260443,0.558093 -0.734823,1.01387 -0.47438,0.455777 -1.162695,0.725522 -0.688316,0.269745 -1.599869,0.269745 -1.162696,0 -1.953328,-0.399967 -0.781332,-0.409269 -1.181299,-1.227806 -0.399967,-0.818538 -0.399967,-2.046344 v -6.622713 h 0.939458 v 6.529697 q 0,1.516155 0.679014,2.232375 0.688315,0.716221 2.009137,0.716221 1.116188,0 1.869614,-0.427872 0.762729,-0.427872 1.153394,-1.292917 0.399967,-0.874347 0.399967,-2.176566 v -5.580938 z"
     id="path7125"
     style="font-weight:300;font-size:19.0496px;line-height:1.25;font-family:'Open Sans';-inkscape-font-specification:'Open Sans Light';fill:#ffffff;stroke-width:0.89295" />
  <path
     d="m 82.087163,83.339053 h -0.94876 V 68.865821 h 0.94876 z"
     id="path7127"
     style="font-weight:300;font-size:19.0496px;line-height:1.25;font-family:'Open Sans';-inkscape-font-specification:'Open Sans Light';fill:#ffffff;stroke-width:0.89295" />
  <path
     d="m 89.267971,73.032921 q 1.292917,0 2.148661,0.604602 0.865046,0.604602 1.283616,1.655678 0.427872,1.051077 0.427872,2.409105 v 0.679014 h -7.301727 q 0,2.08355 0.958061,3.199738 0.967362,1.116187 2.762564,1.116187 0.939458,0 1.627774,-0.148825 0.697617,-0.158126 1.544059,-0.530189 v 0.865045 q -0.744125,0.334857 -1.48825,0.483682 -0.744125,0.158126 -1.711488,0.158126 -1.534757,0 -2.576533,-0.632506 -1.032473,-0.641808 -1.562662,-1.804503 -0.520888,-1.162696 -0.520888,-2.716057 0,-1.516154 0.502285,-2.725358 0.511586,-1.209203 1.48825,-1.90682 0.985966,-0.706919 2.418406,-0.706919 z m -0.0093,0.809236 q -1.451044,0 -2.353296,0.967363 -0.89295,0.958061 -1.051076,2.771866 h 6.297158 q 0,-1.106886 -0.316253,-1.953329 -0.316254,-0.846442 -0.958061,-1.31152 -0.632507,-0.47438 -1.618472,-0.47438 z"
     id="path7129"
     style="font-weight:300;font-size:19.0496px;line-height:1.25;font-family:'Open Sans';-inkscape-font-specification:'Open Sans Light';fill:#ffffff;stroke-width:0.89295" />
  <path
     d="m 99.92756,73.051524 q 0.39997,0 0.75343,0.04651 0.35346,0.04651 0.66041,0.130222 l -0.14883,0.865046 q -0.30695,-0.08371 -0.6232,-0.120921 -0.31626,-0.04651 -0.679016,-0.04651 -0.71622,0 -1.283616,0.269746 -0.558093,0.269745 -0.948759,0.772029 -0.390666,0.502285 -0.5953,1.209204 -0.204634,0.706918 -0.204634,1.581265 v 5.580938 h -0.94876 V 73.228254 h 0.809236 l 0.09302,1.906821 h 0.05581 q 0.232539,-0.585999 0.65111,-1.051077 0.427871,-0.47438 1.032473,-0.753427 0.604602,-0.279047 1.376631,-0.279047 z"
     id="path7131"
     style="font-weight:300;font-size:19.0496px;line-height:1.25;font-family:'Open Sans';-inkscape-font-specification:'Open Sans Light';fill:#ffffff;stroke-width:0.89295" />
  <path
     style="fill:none;stroke:#512bd4;stroke-width:1.54778;stroke-linecap:round;stroke-linejoin:miter;stroke-dasharray:none;stroke-opacity:1"
     d="m 48.233097,31.795225 -0.0082,-3.18023"
     id="path6065"
     inkscape:transform-center-x="0.0011172775"
     inkscape:transform-center-y="-1.5892983" />
  <path
     style="fill:none;stroke:#512bd4;stroke-width:1.54778;stroke-linecap:round;stroke-linejoin:miter;stroke-dasharray:none;stroke-opacity:1"
     d="m 50.12672,31.789995 -1.893623,0.0053"
     id="path6067"
     inkscape:transform-center-x="-0.9475084"
     inkscape:transform-center-y="-0.00035894244" />
  <path
     style="fill:none;stroke:#512bd4;stroke-width:1.54778;stroke-linecap:round;stroke-linejoin:miter;stroke-dasharray:none;stroke-opacity:1"
     d="m 48.229292,39.766883 3.18024,-0.0022"
     id="path6065-2"
     inkscape:transform-center-x="-1.5892977"
     inkscape:transform-center-y="0.0018816393" />
  <path
     style="fill:none;stroke:#512bd4;stroke-width:1.54778;stroke-linecap:round;stroke-linejoin:miter;stroke-dasharray:none;stroke-opacity:1"
     d="M 48.606405,41.619531 48.230279,39.763633"
     id="path6067-9"
     inkscape:transform-center-x="-0.18594193"
     inkscape:transform-center-y="0.92908502" />
  <path
     style="fill:none;stroke:#512bd4;stroke-width:1.54778;stroke-linecap:round;stroke-linejoin:miter;stroke-dasharray:none;stroke-opacity:1"
     d="m 48.233097,47.713147 -1.62705,-2.732515"
     id="path6065-1"
     inkscape:transform-center-x="0.81054225"
     inkscape:transform-center-y="-1.3670738" />
  <path
     style="fill:none;stroke:#512bd4;stroke-width:1.54778;stroke-linecap:round;stroke-linejoin:miter;stroke-dasharray:none;stroke-opacity:1"
     d="m 50.062767,47.224486 -1.829105,0.490109"
     id="path6067-2"
     inkscape:transform-center-x="-0.91581439"
     inkscape:transform-center-y="-0.24301844" />
  <path
     style="fill:none;stroke:#512bd4;stroke-width:1.54778;stroke-linecap:round;stroke-linejoin:miter;stroke-dasharray:none;stroke-opacity:1"
     d="M 48.233097,55.589923 45.162207,56.4167"
     id="path6065-7"
     inkscape:transform-center-x="1.5354242"
     inkscape:transform-center-y="0.41029612" />
  <path
     style="fill:none;stroke:#512bd4;stroke-width:1.54778;stroke-linecap:round;stroke-linejoin:miter;stroke-dasharray:none;stroke-opacity:1"
     d="m 49.700128,56.792826 -1.46569,-1.198994"
     id="path6067-0"
     inkscape:transform-center-x="-0.73192091"
     inkscape:transform-center-y="0.60171803" />
</svg>
