<?xml version="1.0" encoding="UTF-8" standalone="no"?>
<svg
   width="38pt"
   height="38pt"
   version="1.1"
   viewBox="-6 -6 49.553865 50"
   id="svg223"
   sodipodi:docname="logo.svg"
   inkscape:version="1.2.2 (732a01da63, 2022-12-09, custom)"
   xmlns:inkscape="http://www.inkscape.org/namespaces/inkscape"
   xmlns:sodipodi="http://sodipodi.sourceforge.net/DTD/sodipodi-0.dtd"
   xmlns="http://www.w3.org/2000/svg"
   xmlns:svg="http://www.w3.org/2000/svg">
  <defs
     id="defs227" />
  <sodipodi:namedview
     id="namedview225"
     pagecolor="#ffffff"
     bordercolor="#666666"
     borderopacity="1.0"
     inkscape:showpageshadow="2"
     inkscape:pageopacity="0.0"
     inkscape:pagecheckerboard="0"
     inkscape:deskcolor="#d1d1d1"
     inkscape:document-units="pt"
     showgrid="false"
     inkscape:zoom="8.7607362"
     inkscape:cx="52.107493"
     inkscape:cy="25.340336"
     inkscape:window-width="1920"
     inkscape:window-height="1043"
     inkscape:window-x="1920"
     inkscape:window-y="0"
     inkscape:window-maximized="1"
     inkscape:current-layer="svg223" />
  <path
     fill="#512bd4"
     d="M 9.2341638,4.76 A 4.7491,4.7491 0 0 1 4.4850634,9.5091 4.7491,4.7491 0 0 1 -0.26403716,4.76 4.7491,4.7491 0 0 1 4.4850634,0.0109 4.7491,4.7491 0 0 1 9.2341638,4.76 Z"
     id="path189" />
  <path
     fill="#512bd4"
     d="m 17.774164,4.76 a 3.7993,3.7993 0 0 1 -3.7993,3.7993 3.7993,3.7993 0 0 1 -3.7993,-3.7993 3.7993,3.7993 0 0 1 3.7993,-3.7993 3.7993,3.7993 0 0 1 3.7993,3.7993 z"
     id="path191" />
  <path
     fill="#512bd4"
     d="m 26.312164,4.76 a 2.8494,2.8494 0 0 1 -2.8494,2.8494 2.8494,2.8494 0 0 1 -2.8494,-2.8494 2.8494,2.8494 0 0 1 2.8494,-2.8494 2.8494,2.8494 0 0 1 2.8494,2.8494 z"
     id="path193" />
  <path
     fill="#512bd4"
     d="m 34.851164,4.78 a 1.8996,1.8996 0 0 1 -1.8996,1.8996 1.8996,1.8996 0 0 1 -1.8996,-1.8996 1.8996,1.8996 0 0 1 1.8996,-1.8996 1.8996,1.8996 0 0 1 1.8996,1.8996 z"
     id="path195" />
  <path
     fill="#512bd4"
     d="M 9.2341638,14.26 A 4.7491,4.7491 0 0 1 4.4850634,19.0091 4.7491,4.7491 0 0 1 -0.26403716,14.26 4.7491,4.7491 0 0 1 4.4850634,9.5109 4.7491,4.7491 0 0 1 9.2341638,14.26 Z"
     id="path197" />
  <path
     fill="#512bd4"
     d="m 17.774164,14.26 a 3.7993,3.7993 0 0 1 -3.7993,3.7993 3.7993,3.7993 0 0 1 -3.7993,-3.7993 3.7993,3.7993 0 0 1 3.7993,-3.7993 3.7993,3.7993 0 0 1 3.7993,3.7993 z"
     id="path199" />
  <path
     fill="#512bd4"
     d="m 26.312164,14.26 a 2.8494,2.8494 0 0 1 -2.8494,2.8494 2.8494,2.8494 0 0 1 -2.8494,-2.8494 2.8494,2.8494 0 0 1 2.8494,-2.8494 2.8494,2.8494 0 0 1 2.8494,2.8494 z"
     id="path201" />
  <path
     fill="#512bd4"
     d="m 34.851164,14.28 a 1.8996,1.8996 0 0 1 -1.8996,1.8996 1.8996,1.8996 0 0 1 -1.8996,-1.8996 1.8996,1.8996 0 0 1 1.8996,-1.8996 1.8996,1.8996 0 0 1 1.8996,1.8996 z"
     id="path203" />
  <path
     fill="#512bd4"
     d="M 9.2401638,23.75 A 4.7491,4.7491 0 0 1 4.4910634,28.4991 4.7491,4.7491 0 0 1 -0.25803716,23.75 4.7491,4.7491 0 0 1 4.4910634,19.0009 4.7491,4.7491 0 0 1 9.2401638,23.75 Z"
     id="path205" />
  <path
     fill="#512bd4"
     d="m 17.780164,23.75 a 3.7993,3.7993 0 0 1 -3.7993,3.7993 3.7993,3.7993 0 0 1 -3.7993,-3.7993 3.7993,3.7993 0 0 1 3.7993,-3.7993 3.7993,3.7993 0 0 1 3.7993,3.7993 z"
     id="path207" />
  <path
     fill="#512bd4"
     d="m 26.318164,23.75 a 2.8494,2.8494 0 0 1 -2.8494,2.8494 2.8494,2.8494 0 0 1 -2.8494,-2.8494 2.8494,2.8494 0 0 1 2.8494,-2.8494 2.8494,2.8494 0 0 1 2.8494,2.8494 z"
     id="path209" />
  <path
     fill="#512bd4"
     d="m 34.857164,23.77 a 1.8996,1.8996 0 0 1 -1.8996,1.8996 1.8996,1.8996 0 0 1 -1.8996,-1.8996 1.8996,1.8996 0 0 1 1.8996,-1.8996 1.8996,1.8996 0 0 1 1.8996,1.8996 z"
     id="path211" />
  <path
     fill="#512bd4"
     d="M 9.2411638,33.25 A 4.7491,4.7491 0 0 1 4.4920634,37.9991 4.7491,4.7491 0 0 1 -0.25703716,33.25 4.7491,4.7491 0 0 1 4.4920634,28.5009 4.7491,4.7491 0 0 1 9.2411638,33.25 Z"
     id="path213" />
  <path
     fill="#512bd4"
     d="m 17.780164,33.25 a 3.7993,3.7993 0 0 1 -3.7993,3.7993 3.7993,3.7993 0 0 1 -3.7993,-3.7993 3.7993,3.7993 0 0 1 3.7993,-3.7993 3.7993,3.7993 0 0 1 3.7993,3.7993 z"
     id="path215" />
  <path
     fill="#512bd4"
     d="m 26.319164,33.25 a 2.8494,2.8494 0 0 1 -2.8494,2.8494 2.8494,2.8494 0 0 1 -2.8494,-2.8494 2.8494,2.8494 0 0 1 2.8494,-2.8494 2.8494,2.8494 0 0 1 2.8494,2.8494 z"
     id="path217" />
  <path
     fill="#512bd4"
     d="m 34.857164,33.28 a 1.8996,1.8996 0 0 1 -1.8996,1.8996 1.8996,1.8996 0 0 1 -1.8996,-1.8996 1.8996,1.8996 0 0 1 1.8996,-1.8996 1.8996,1.8996 0 0 1 1.8996,1.8996 z"
     id="path219" />
  <path
     style="fill:none;stroke:#ffffff;stroke-width:1.85279;stroke-linecap:round;stroke-linejoin:miter;stroke-dasharray:none;stroke-opacity:1"
     d="M 4.5210182,4.7630657 4.5111631,0.95614739"
     id="path6065"
     inkscape:transform-center-x="0.0012093978"
     inkscape:transform-center-y="-1.7214719" />
  <path
     style="fill:none;stroke:#ffffff;stroke-width:1.85279;stroke-linecap:round;stroke-linejoin:miter;stroke-dasharray:none;stroke-opacity:1"
     d="M 6.7877941,4.756805 4.5210182,4.763195"
     id="path6067"
     inkscape:transform-center-x="-1.0263076"
     inkscape:transform-center-y="-0.0003891495" />
  <path
     style="fill:none;stroke:#ffffff;stroke-width:1.85279;stroke-linecap:round;stroke-linejoin:miter;stroke-dasharray:none;stroke-opacity:1"
     d="m 4.5164636,14.305599 3.8069312,-0.0026"
     id="path6065-2"
     inkscape:transform-center-x="-1.7214712"
     inkscape:transform-center-y="0.0020381525" />
  <path
     style="fill:none;stroke:#ffffff;stroke-width:1.85279;stroke-linecap:round;stroke-linejoin:miter;stroke-dasharray:none;stroke-opacity:1"
     d="M 4.9678898,16.523326 4.5176453,14.301709"
     id="path6067-9"
     inkscape:transform-center-x="-0.20140576"
     inkscape:transform-center-y="1.0063523" />
  <path
     style="fill:none;stroke:#ffffff;stroke-width:1.85279;stroke-linecap:round;stroke-linejoin:miter;stroke-dasharray:none;stroke-opacity:1"
     d="M 4.5210182,23.817734 2.573346,20.546756"
     id="path6065-1"
     inkscape:transform-center-x="0.87795078"
     inkscape:transform-center-y="-1.4807661" />
  <path
     style="fill:none;stroke:#ffffff;stroke-width:1.85279;stroke-linecap:round;stroke-linejoin:miter;stroke-dasharray:none;stroke-opacity:1"
     d="m 6.7112393,23.232778 -2.189544,0.586689"
     id="path6067-2"
     inkscape:transform-center-x="-0.99197789"
     inkscape:transform-center-y="-0.26322902" />
  <path
     style="fill:none;stroke:#ffffff;stroke-width:1.85279;stroke-linecap:round;stroke-linejoin:miter;stroke-dasharray:none;stroke-opacity:1"
     d="M 4.5210182,33.246687 0.84498639,34.236386"
     id="path6065-7"
     inkscape:transform-center-x="1.6631173"
     inkscape:transform-center-y="0.44441792" />
  <path
     style="fill:none;stroke:#ffffff;stroke-width:1.85279;stroke-linecap:round;stroke-linejoin:miter;stroke-dasharray:none;stroke-opacity:1"
     d="M 6.2771394,34.686631 4.5226235,33.251366"
     id="path6067-0"
     inkscape:transform-center-x="-0.79279093"
     inkscape:transform-center-y="0.6517595" />
</svg>
